<svg xmlns="http://www.w3.org/2000/svg" viewBox="0 0 64 64" role="img" aria-label="MUMBOX favicon">
  <defs>
    <linearGradient id="bg" x1="8" y1="4" x2="56" y2="62" gradientUnits="userSpaceOnUse">
      <stop stop-color="#0d121f"/>
      <stop offset="1" stop-color="#05070d"/>
    </linearGradient>
    <filter id="shadow" x="-20%" y="-20%" width="140%" height="150%">
      <feDropShadow dx="0" dy="2" stdDeviation="1.4" flood-color="#000000" flood-opacity=".45"/>
    </filter>
  </defs>

  <rect width="64" height="64" rx="14" fill="url(#bg)"/>
  <rect x="1.5" y="1.5" width="61" height="61" rx="12.5" fill="none" stroke="#8cf8ff" stroke-opacity=".22" stroke-width="3"/>

  <g filter="url(#shadow)" stroke="#05070d" stroke-width="1.4" stroke-linejoin="round">
    <path d="M28 12h8l4 4-4 4h-8l-4-4z" fill="#8cf8ff"/>
    <path d="M28 20h8v8h-8z" fill="#59dfe8"/>
    <path d="M24 16l4 4v8l-4-4z" fill="#37aeb8"/>
    <path d="M36 20l4-4v8l-4 4z" fill="#b6fbff"/>

    <path d="M18 24h8l4 4-4 4h-8l-4-4z" fill="#ffcc66"/>
    <path d="M18 32h8v8h-8z" fill="#d99b35"/>
    <path d="M14 28l4 4v8l-4-4z" fill="#9d6820"/>
    <path d="M26 32l4-4v8l-4 4z" fill="#ffe19a"/>

    <path d="M38 24h8l4 4-4 4h-8l-4-4z" fill="#6df7a5"/>
    <path d="M38 32h8v8h-8z" fill="#3ccf78"/>
    <path d="M34 28l4 4v8l-4-4z" fill="#25824e"/>
    <path d="M46 32l4-4v8l-4 4z" fill="#a8ffc7"/>

    <path d="M28 34h8l4 4-4 4h-8l-4-4z" fill="#ff6b8a"/>
    <path d="M28 42h8v8h-8z" fill="#dd4268"/>
    <path d="M24 38l4 4v8l-4-4z" fill="#93223e"/>
    <path d="M36 42l4-4v8l-4 4z" fill="#ff9bae"/>
  </g>

  <text
    x="32"
    y="58"
    fill="#8cf8ff"
    font-family="JetBrains Mono, SFMono-Regular, Consolas, monospace"
    font-size="13"
    font-weight="800"
    text-anchor="middle"
    letter-spacing="0"
  >MUM</text>
</svg>
